<svg version="1.1" id="Layer_1" xmlns="http://www.w3.org/2000/svg" xmlns:xlink="http://www.w3.org/1999/xlink" x="0px" y="0px" viewBox="0 0 512 512" style="enable-background:new 0 0 512 512;" xml:space="preserve" fill="white">
    <g>
        <g>
            <path
                d="M256,0C114.615,0,0,114.615,0,256s114.615,256,256,256s256-114.615,256-256S397.385,0,256,0z M343.308,416.769 c-1.026,0.308-2.051,0.513-3.077,0.513c-2.359,0-4.615-0.718-6.564-2.051c-8.923-5.846-15.026-15.538-16.103-26.41 c-0.821-11.487,4.462-22.462,13.385-28.308c1.949-1.282,4.205-2.051,6.564-2.051c1.026,0,2.051,0.205,3.077,0.513 c11.282,3.436,19.231,13.641,19.231,25.436C363.333,399.949,355.282,411.385,343.308,416.769z M407.282,451.744 c-1.333,0-2.667-0.205-3.949-0.718c-9.641-3.59-15.949-12.718-15.949-22.923c0-10.205,6.308-19.333,15.949-22.923 c2.564-0.923,5.436-0.718,7.897,0.513c8.923,4.667,14.667,13.692,14.667,23.641c0,9.949-5.744,18.974-14.667,23.641 C409.949,451.538,408.615,451.744,407.282,451.744z M438.769,354.923c-13.846,0-25.026-11.179-25.026-25.026 c0-7.744,3.59-14.615,8.974-19.231c-22.564-16.923-47.538-27.128-73.846-30.154v45.949c0,14.615-11.897,26.513-26.513,26.513 s-26.513-11.897-26.513-26.513v-91.026c0-26.462-21.538-48-48-48s-48,21.538-48,48v88.974c0,28.718-23.487,52.205-52.205,52.205 S76.667,314.615,76.667,285.897v-45.692c0-35.333,28.667-64,64-64s64,28.667,64,64v10.154 c2.821-0.205,5.641-0.205,8.462-0.205c4.923,0,9.744,0.308,14.359,0.923c19.385-50.718,67.897-87.077,123.026-87.077 c74.462,0,134.872,60.41,134.872,134.872C465.282,306.923,465.282,306.923,438.769,354.923z" />
        </g>
    </g>
</svg> 