
<svg width="115" height="115" viewBox="0 0 115 115" fill="none" xmlns="http://www.w3.org/2000/svg">
<g clip-path="url(#clip0_461_5446)">
<path d="M68.811 45.534C77.5691 36.1081 86.3018 26.6617 95.1312 17.3021C95.6818 16.7158 97.3029 16.3386 97.8484 16.7107C99.1789 17.6182 98.4041 18.7448 97.4508 19.6369C90.2475 26.3151 83.0493 33.0035 75.8461 39.6817C73.6183 41.7463 71.3804 43.7956 69.1475 45.8552L68.811 45.5391V45.534Z" fill="url(#paint0_linear_461_5446)"/>
<path d="M69.2794 68.75C73.7044 72.8538 78.1293 76.9524 82.5491 81.0562C87.3819 85.5423 92.2147 90.0233 97.0423 94.5145C97.9599 95.371 99.2803 96.2988 98.0466 97.6446C96.7364 99.0771 95.6353 97.8944 94.6922 96.885C86.24 87.7803 77.7928 78.6704 69.3508 69.5555C69.203 69.3974 69.1469 69.1578 69.0449 68.959C69.1214 68.8876 69.1979 68.8163 69.2692 68.75H69.2794Z" fill="url(#paint1_linear_461_5446)"/>
<path d="M45.901 69.0667C41.8023 73.5172 37.7087 77.9829 33.5947 82.4231C29.0424 87.3323 24.5155 92.267 19.8509 97.0641C19.2494 97.681 17.4855 98.0735 16.935 97.6657C15.6401 96.6971 16.6138 95.6061 17.5365 94.7548C26.6617 86.272 35.7868 77.7892 44.9171 69.3114C45.1363 69.1126 45.3963 68.9546 45.6359 68.7812C45.7225 68.8781 45.8143 68.975 45.901 69.0718V69.0667Z" fill="url(#paint2_linear_461_5446)"/>
<path d="M45.3408 45.4796C36.0372 36.8591 26.7132 28.2641 17.4759 19.5723C16.8948 19.0268 17.012 17.737 16.8081 16.7939C17.7614 16.8704 19.1225 16.5594 19.6068 17.0743C28.3547 26.3677 37.0007 35.763 45.667 45.138C45.56 45.2501 45.4529 45.3623 45.3459 45.4796H45.3408Z" fill="url(#paint3_linear_461_5446)"/>
<path d="M67.1372 42.277C67.7744 41.2421 68.4168 40.2073 69.054 39.1724C74.575 30.1798 80.0959 21.1872 85.6169 12.1946C85.882 11.7613 86.0553 11.1903 86.4377 10.9354C87.2839 10.3645 88.4972 9.33979 89.0987 9.59468C90.7606 10.2982 90.0266 11.5981 89.2211 12.7044C86.7843 16.0486 84.3527 19.3979 81.9261 22.7522C77.4196 28.9767 72.9233 35.2063 68.4117 41.4257C68.1364 41.8029 67.7948 42.1343 67.4839 42.4911C67.3717 42.4197 67.2596 42.3484 67.1423 42.277H67.1372Z" fill="url(#paint4_linear_461_5446)"/>
<path d="M47.2725 42.4847C40.0284 32.498 32.7895 22.5164 25.5454 12.5348C24.7807 11.4795 24.2353 10.1949 25.7238 9.60353C26.3611 9.34864 27.9006 10.1388 28.3645 10.8729C33.7632 19.4526 39.0292 28.1138 44.3361 36.7547C45.4627 38.595 46.6046 40.4251 47.7415 42.2604C47.5834 42.3368 47.4305 42.4133 47.2725 42.4949V42.4847Z" fill="url(#paint5_linear_461_5446)"/>
<path d="M73.1784 46.3705C79.5966 41.711 86.0199 37.0465 92.4432 32.387C95.7262 30.0013 98.9736 27.5594 102.343 25.3061C102.975 24.8881 104.133 25.2653 105.05 25.2704C104.841 26.1422 104.923 27.4727 104.377 27.8143C94.1612 34.2223 83.8737 40.513 73.5965 46.8293C73.4537 46.6763 73.3161 46.5234 73.1733 46.3705H73.1784Z" fill="url(#paint6_linear_461_5446)"/>
<path d="M47.0215 72.9414C46.5933 73.8437 46.4353 74.2719 46.2008 74.6543C40.2822 84.3198 34.384 94.0006 28.3634 103.605C27.9046 104.334 26.3039 105.088 25.6666 104.818C24.1526 104.176 24.851 102.886 25.5851 101.872C32.3805 92.4815 39.1861 83.1014 45.9969 73.7214C46.1243 73.543 46.3588 73.441 47.0164 72.9414H47.0215Z" fill="url(#paint7_linear_461_5446)"/>
<path d="M41.2927 46.8168C34.8949 42.8965 28.4971 38.9865 22.1044 35.0611C18.2861 32.7161 14.4372 30.417 10.7056 27.9394C10.0888 27.5316 10.0123 26.3183 9.68604 25.4721C10.6444 25.3956 11.9138 24.8807 12.5102 25.3089C22.1605 32.1706 31.7291 39.1496 41.308 46.1082C41.4355 46.1999 41.5068 46.3733 41.6037 46.5109C41.5017 46.6129 41.3947 46.7148 41.2927 46.8219V46.8168Z" fill="url(#paint8_linear_461_5446)"/>
<path d="M74.0253 67.9453C76.3652 69.3676 78.7102 70.7848 81.04 72.2173C88.1719 76.5964 95.2987 80.9754 102.425 85.3596C103.073 85.7572 103.919 86.0376 104.296 86.6187C104.765 87.3273 104.842 88.2959 105.087 89.1524C104.205 89.2085 103.058 89.6469 102.482 89.2543C98.4287 86.5015 94.483 83.5855 90.5118 80.7052C84.9092 76.6422 79.3118 72.5691 73.7144 68.501C73.8163 68.3175 73.9183 68.1288 74.0202 67.9453H74.0253Z" fill="url(#paint9_linear_461_5446)"/>
<path d="M41.5417 68.2203C34.527 73.3079 27.91 78.1203 21.2828 82.9276C18.4127 85.0126 15.5885 87.169 12.6216 89.1011C11.9487 89.5395 10.7507 89.1776 9.79736 89.1877C10.0879 88.2752 10.093 86.909 10.715 86.5216C20.5844 80.3328 30.5354 74.2663 40.4711 68.1795C40.5833 68.1132 40.777 68.1846 41.5468 68.2203H41.5417Z" fill="url(#paint10_linear_461_5446)"/>
<path d="M68.4694 73.2278C72.2775 78.4581 76.0856 83.6834 79.8835 88.9138C83.0135 93.2266 86.1283 97.5496 89.2533 101.862C90.0027 102.897 90.645 104.131 89.1768 104.824C88.5906 105.105 87.0357 104.483 86.6279 103.83C80.4799 94.0168 74.444 84.127 68.3929 74.2524C68.2451 74.0077 68.1992 73.6968 68.1074 73.4164L68.4694 73.2227V73.2278Z" fill="url(#paint11_linear_461_5446)"/>
<path d="M40.0685 50.2813C35.7404 48.7009 31.4123 47.1257 27.0894 45.5403C20.5998 43.1596 14.1102 40.7687 7.62577 38.3778C7.15167 38.2045 6.68776 37.9954 6.20857 37.8323C4.99018 37.4092 3.89414 36.7771 4.50588 35.2936C5.13292 33.7693 6.3564 34.2179 7.49322 34.7481C13.7738 37.659 20.0492 40.5648 26.3349 43.4654C30.9688 45.6065 35.6079 47.7323 40.2418 49.8632C40.1857 50.0009 40.1246 50.1436 40.0685 50.2813Z" fill="url(#paint12_linear_461_5446)"/>
<path d="M74.709 49.8263C83.9208 45.5747 93.1326 41.3231 102.35 37.0766C104.042 36.2966 105.673 35.3229 107.442 34.8131C108.314 34.5583 110.001 34.8386 110.333 35.4249C111.128 36.8421 109.762 37.4436 108.605 37.8668C99.6375 41.1702 90.6653 44.4634 81.693 47.7617C79.4194 48.5977 77.1458 49.444 74.8721 50.28C74.816 50.1271 74.7651 49.9742 74.709 49.8212V49.8263Z" fill="url(#paint13_linear_461_5446)"/>
<path d="M64.5117 39.5645C66.2654 34.7572 68.0088 29.9448 69.7778 25.1426C72.0922 18.8774 74.4321 12.6274 76.7517 6.36216C77.1952 5.16416 77.5673 3.62971 79.2598 4.24655C81.1307 4.92966 80.366 6.41314 79.7951 7.65191C75.0847 17.8578 70.3539 28.0637 65.6281 38.2594C65.3987 38.7539 65.1133 39.2229 64.8533 39.7021C64.7411 39.6562 64.6239 39.6052 64.5117 39.5594V39.5645Z" fill="url(#paint14_linear_461_5446)"/>
<path d="M49.9424 39.7342C47.21 33.8614 44.4724 27.9887 41.7502 22.116C39.5479 17.3648 37.366 12.6034 35.174 7.8471C34.6081 6.61852 33.7058 5.16053 35.434 4.32958C37.2845 3.43236 37.677 5.17073 38.1358 6.40441C42.0968 17.0946 46.0426 27.7899 49.9832 38.4852C50.1158 38.8471 50.1871 39.2346 50.2891 39.6067C50.1718 39.6475 50.0597 39.6883 49.9424 39.7342Z" fill="url(#paint15_linear_461_5446)"/>
<path d="M49.8872 76.212C46.5736 85.2403 43.26 94.2635 39.9413 103.292C39.3857 104.796 38.8249 106.3 38.2438 107.793C37.7391 109.103 37.3822 111.025 35.4399 110.138C33.5588 109.277 34.7007 107.656 35.2768 106.401C37.6677 101.176 40.1096 95.9713 42.5259 90.7562C44.8302 85.7857 47.1242 80.8102 49.4233 75.8398C49.5763 75.9622 49.7292 76.0845 49.8872 76.2069V76.212Z" fill="url(#paint16_linear_461_5446)"/>
<path d="M76.6506 64.8711C79.9438 66.0844 83.2319 67.2926 86.5251 68.5059C93.81 71.1873 101.09 73.8739 108.375 76.5503C109.598 76.9989 111 77.4271 110.403 79.1247C109.771 80.9191 108.405 80.2207 107.248 79.6906C96.9859 74.9546 86.729 70.2034 76.4722 65.4573C76.5282 65.2636 76.5894 65.0648 76.6455 64.8711H76.6506Z" fill="url(#paint17_linear_461_5446)"/>
<path d="M65.2986 75.5285C69.4075 84.3988 73.3124 92.8204 77.2123 101.252C78.1707 103.322 79.2616 105.351 79.9804 107.502C80.2353 108.267 79.5726 109.332 79.333 110.26C78.553 109.796 77.3142 109.506 77.0594 108.838C72.9964 98.0916 69.0608 87.2944 65.1049 76.5073C65.059 76.3748 65.161 76.1913 65.2986 75.5234V75.5285Z" fill="url(#paint18_linear_461_5446)"/>
<path d="M38.4922 65.4217C32.0485 68.3835 25.6099 71.3505 19.1663 74.3123C15.0931 76.1883 11.0454 78.1153 6.91613 79.869C6.30948 80.129 5.34089 79.5529 4.54053 79.3592C4.88718 78.5333 5.02992 77.1773 5.60598 76.9581C16.4185 72.8492 27.282 68.878 38.1303 64.8711C38.2475 65.0495 38.3648 65.233 38.482 65.4115L38.4922 65.4217Z" fill="url(#paint19_linear_461_5446)"/>
<path d="M77.7876 52.9684C88.7633 50.3073 99.7338 47.6054 110.735 45.0463C111.591 44.8475 113.264 45.3777 113.539 46.0098C114.191 47.5035 112.789 48.0133 111.571 48.2019C100.646 49.9097 89.7217 51.5869 78.797 53.2641C78.4707 53.315 78.1343 53.2692 77.8029 53.2692C77.8029 53.1672 77.7927 53.0652 77.7876 52.9633V52.9684Z" fill="url(#paint20_linear_461_5446)"/>
<path d="M36.8986 53.3329C32.1525 52.6345 27.4013 51.9514 22.6603 51.2275C16.3186 50.2538 9.98194 49.2445 3.64021 48.2504C3.39042 48.2096 3.04376 48.2555 2.90612 48.1077C2.29438 47.4449 1.74381 46.7261 1.17285 46.0277C1.97831 45.6097 2.89593 44.6921 3.56884 44.8501C14.7229 47.4704 25.8414 50.2284 36.97 52.9557L36.8986 53.3329Z" fill="url(#paint21_linear_461_5446)"/>
<path d="M37.3214 61.4224C30.4495 63.1149 23.5776 64.8125 16.7057 66.4999C12.6071 67.5041 8.50839 68.5084 4.39952 69.4668C3.20152 69.7472 1.67217 70.3029 1.25924 68.4931C0.800435 66.4846 2.56939 66.403 3.82856 66.2093C14.9164 64.4709 26.0093 62.7886 37.1022 61.0859C37.1787 61.2032 37.2501 61.3153 37.3265 61.4326L37.3214 61.4224Z" fill="url(#paint22_linear_461_5446)"/>
<path d="M61.4331 35.9243C61.948 32.6107 62.4629 29.3022 62.9778 25.9886C64.1452 18.4693 65.3177 10.95 66.4749 3.43064C66.6737 2.12049 66.8521 0.652307 68.6466 1.03974C70.3747 1.41698 70.023 2.76282 69.7018 4.09336C67.2396 14.182 64.8232 24.2808 62.3813 34.3746C62.2488 34.9303 61.9684 35.4553 61.7543 35.9906C61.6472 35.9702 61.5402 35.9447 61.4331 35.9243Z" fill="url(#paint23_linear_461_5446)"/>
<path d="M52.9558 35.9847C51.0543 28.2156 49.1477 20.4465 47.2513 12.6723C46.5325 9.7206 45.9004 6.74855 45.1051 3.82238C44.7431 2.48165 44.7635 1.34483 46.2674 1.03386C47.8681 0.707597 48.1587 1.93108 48.3575 3.22084C49.8461 12.9068 51.3754 22.5876 52.8844 32.2735C53.073 33.4817 53.226 34.695 53.3942 35.9032C53.2515 35.9286 53.1036 35.9592 52.9609 35.9847H52.9558Z" fill="url(#paint24_linear_461_5446)"/>
<path d="M79.4548 61.3645C84.4558 62.1139 89.4568 62.8479 94.4527 63.6126C99.7953 64.4283 105.138 65.2694 110.475 66.1055C110.975 66.1819 111.587 66.1819 111.933 66.4674C112.601 67.0282 113.121 67.7725 113.702 68.4352C112.907 68.843 112.02 69.7148 111.337 69.5771C107.034 68.7003 102.778 67.6042 98.5106 66.5643C92.1281 65.0145 85.7507 63.4495 79.3682 61.8896C79.3988 61.7111 79.4242 61.5327 79.4548 61.3594V61.3645Z" fill="url(#paint25_linear_461_5446)"/>
<path d="M53.4194 78.6274C52.5324 84.4645 51.6606 90.3066 50.7583 96.1386C49.9784 101.155 49.1474 106.161 48.3725 111.177C48.1788 112.426 47.98 113.711 46.3283 113.42C44.5237 113.104 44.8448 111.789 45.1711 110.458C47.7761 99.809 50.3505 89.1545 52.93 78.5C53.0931 78.5408 53.2563 78.5816 53.4194 78.6223V78.6274Z" fill="url(#paint26_linear_461_5446)"/>
<path d="M61.9021 78.3945C63.9769 86.8876 66.0569 95.3806 68.1266 103.874C68.7077 106.249 69.3858 108.609 69.7579 111.016C69.87 111.75 69.1156 112.616 68.7587 113.422C68.0297 112.82 66.7807 112.311 66.6584 111.602C65.3381 103.955 64.191 96.2727 62.9981 88.6055C62.4731 85.2307 61.9531 81.856 61.4331 78.4812C61.5911 78.4506 61.7441 78.4251 61.9021 78.3945Z" fill="url(#paint27_linear_461_5446)"/>
<path d="M83.2737 57.0618C90.4361 56.6794 97.5935 56.2971 104.756 55.9097C107.29 55.772 109.828 55.4916 112.357 55.5732C113.208 55.6038 114.029 56.5673 114.86 57.1026C114.116 57.7092 113.351 58.8664 112.632 58.8358C102.839 58.4637 93.0513 57.9284 83.2686 57.4288C83.2686 57.3065 83.2788 57.179 83.2788 57.0567L83.2737 57.0618Z" fill="url(#paint28_linear_461_5446)"/>
<path d="M31.5246 57.4383C21.8132 57.9328 12.1018 58.4629 2.38531 58.8402C1.61043 58.8708 0.794776 57.7951 -0.000488281 57.2344C0.876342 56.6583 1.77356 55.5521 2.62491 55.5827C12.2598 55.9752 21.8897 56.5411 31.5195 57.0661C31.5195 57.1936 31.5195 57.3159 31.5246 57.4434V57.4383Z" fill="url(#paint29_linear_461_5446)"/>
<path d="M58.1514 83.7121C58.1514 86.9646 58.0545 90.2272 58.1717 93.4745C58.396 99.5461 58.7529 105.613 59.0435 111.684C59.1046 112.964 59.2576 114.534 57.4886 114.58C55.7197 114.625 55.7656 113.081 55.8267 111.781C56.26 102.437 56.7087 93.0922 57.1471 83.7427C57.4835 83.7325 57.8149 83.7223 58.1514 83.707V83.7121Z" fill="url(#paint30_linear_461_5446)"/>
<path d="M57.1974 30.6843C56.9833 26.9373 56.7386 23.1904 56.5602 19.4384C56.2849 13.7849 56.0453 8.13136 55.8108 2.47785C55.7598 1.26456 55.77 -0.21382 57.4472 0.0257786C58.0844 0.11754 59.0275 1.51435 59.002 2.28922C58.6656 11.7355 58.1813 21.1819 57.7327 30.6231C57.5542 30.6435 57.3809 30.6639 57.2025 30.6843H57.1974Z" fill="url(#paint31_linear_461_5446)"/>
</g>
<defs>
<linearGradient id="paint0_linear_461_5446" x1="83.685" y1="16.5625" x2="83.685" y2="45.8552" gradientUnits="userSpaceOnUse">
<stop offset="0.35" stop-color="#CB5534"/>
<stop offset="1" stop-color="#F5C178"/>
</linearGradient>
<linearGradient id="paint1_linear_461_5446" x1="83.7963" y1="68.75" x2="83.7963" y2="98.3087" gradientUnits="userSpaceOnUse">
<stop offset="0.35" stop-color="#CB5534"/>
<stop offset="1" stop-color="#F5C178"/>
</linearGradient>
<linearGradient id="paint2_linear_461_5446" x1="31.1053" y1="68.7812" x2="31.1053" y2="97.8327" gradientUnits="userSpaceOnUse">
<stop offset="0.35" stop-color="#CB5534"/>
<stop offset="1" stop-color="#F5C178"/>
</linearGradient>
<linearGradient id="paint3_linear_461_5446" x1="31.2376" y1="16.7695" x2="31.2376" y2="45.4795" gradientUnits="userSpaceOnUse">
<stop offset="0.35" stop-color="#CB5534"/>
<stop offset="1" stop-color="#F5C178"/>
</linearGradient>
<linearGradient id="paint4_linear_461_5446" x1="78.6181" y1="9.55469" x2="78.6181" y2="42.4911" gradientUnits="userSpaceOnUse">
<stop offset="0.35" stop-color="#CB5534"/>
<stop offset="1" stop-color="#F5C178"/>
</linearGradient>
<linearGradient id="paint5_linear_461_5446" x1="36.2628" y1="9.55469" x2="36.2628" y2="42.4949" gradientUnits="userSpaceOnUse">
<stop offset="0.35" stop-color="#CB5534"/>
<stop offset="1" stop-color="#F5C178"/>
</linearGradient>
<linearGradient id="paint6_linear_461_5446" x1="89.1118" y1="25.1094" x2="89.1118" y2="46.8293" gradientUnits="userSpaceOnUse">
<stop offset="0.35" stop-color="#CB5534"/>
<stop offset="1" stop-color="#F5C178"/>
</linearGradient>
<linearGradient id="paint7_linear_461_5446" x1="35.8946" y1="72.9414" x2="35.8946" y2="104.874" gradientUnits="userSpaceOnUse">
<stop offset="0.35" stop-color="#CB5534"/>
<stop offset="1" stop-color="#F5C178"/>
</linearGradient>
<linearGradient id="paint8_linear_461_5446" x1="25.6449" y1="25.1406" x2="25.6449" y2="46.8219" gradientUnits="userSpaceOnUse">
<stop offset="0.35" stop-color="#CB5534"/>
<stop offset="1" stop-color="#F5C178"/>
</linearGradient>
<linearGradient id="paint9_linear_461_5446" x1="89.4004" y1="67.9453" x2="89.4004" y2="89.416" gradientUnits="userSpaceOnUse">
<stop offset="0.35" stop-color="#CB5534"/>
<stop offset="1" stop-color="#F5C178"/>
</linearGradient>
<linearGradient id="paint10_linear_461_5446" x1="25.6721" y1="68.1523" x2="25.6721" y2="89.3185" gradientUnits="userSpaceOnUse">
<stop offset="0.35" stop-color="#CB5534"/>
<stop offset="1" stop-color="#F5C178"/>
</linearGradient>
<linearGradient id="paint11_linear_461_5446" x1="79.0836" y1="73.2227" x2="79.0836" y2="104.893" gradientUnits="userSpaceOnUse">
<stop offset="0.35" stop-color="#CB5534"/>
<stop offset="1" stop-color="#F5C178"/>
</linearGradient>
<linearGradient id="paint12_linear_461_5446" x1="22.2864" y1="34.25" x2="22.2864" y2="50.2813" gradientUnits="userSpaceOnUse">
<stop offset="0.35" stop-color="#CB5534"/>
<stop offset="1" stop-color="#F5C178"/>
</linearGradient>
<linearGradient id="paint13_linear_461_5446" x1="92.6394" y1="34.7187" x2="92.6394" y2="50.28" gradientUnits="userSpaceOnUse">
<stop offset="0.35" stop-color="#CB5534"/>
<stop offset="1" stop-color="#F5C178"/>
</linearGradient>
<linearGradient id="paint14_linear_461_5446" x1="72.4784" y1="4.10547" x2="72.4784" y2="39.7021" gradientUnits="userSpaceOnUse">
<stop offset="0.35" stop-color="#CB5534"/>
<stop offset="1" stop-color="#F5C178"/>
</linearGradient>
<linearGradient id="paint15_linear_461_5446" x1="42.3584" y1="4.08203" x2="42.3584" y2="39.7342" gradientUnits="userSpaceOnUse">
<stop offset="0.35" stop-color="#CB5534"/>
<stop offset="1" stop-color="#F5C178"/>
</linearGradient>
<linearGradient id="paint16_linear_461_5446" x1="42.1453" y1="75.8398" x2="42.1453" y2="110.364" gradientUnits="userSpaceOnUse">
<stop offset="0.35" stop-color="#CB5534"/>
<stop offset="1" stop-color="#F5C178"/>
</linearGradient>
<linearGradient id="paint17_linear_461_5446" x1="93.5087" y1="64.8711" x2="93.5087" y2="80.2801" gradientUnits="userSpaceOnUse">
<stop offset="0.35" stop-color="#CB5534"/>
<stop offset="1" stop-color="#F5C178"/>
</linearGradient>
<linearGradient id="paint18_linear_461_5446" x1="72.5658" y1="75.5234" x2="72.5658" y2="110.26" gradientUnits="userSpaceOnUse">
<stop offset="0.35" stop-color="#CB5534"/>
<stop offset="1" stop-color="#F5C178"/>
</linearGradient>
<linearGradient id="paint19_linear_461_5446" x1="21.5164" y1="64.8711" x2="21.5164" y2="79.9352" gradientUnits="userSpaceOnUse">
<stop offset="0.35" stop-color="#CB5534"/>
<stop offset="1" stop-color="#F5C178"/>
</linearGradient>
<linearGradient id="paint20_linear_461_5446" x1="95.7461" y1="45.0039" x2="95.7461" y2="53.2881" gradientUnits="userSpaceOnUse">
<stop offset="0.35" stop-color="#CB5534"/>
<stop offset="1" stop-color="#F5C178"/>
</linearGradient>
<linearGradient id="paint21_linear_461_5446" x1="19.0714" y1="44.832" x2="19.0714" y2="53.3329" gradientUnits="userSpaceOnUse">
<stop offset="0.35" stop-color="#CB5534"/>
<stop offset="1" stop-color="#F5C178"/>
</linearGradient>
<linearGradient id="paint22_linear_461_5446" x1="19.2558" y1="61.0859" x2="19.2558" y2="69.772" gradientUnits="userSpaceOnUse">
<stop offset="0.35" stop-color="#CB5534"/>
<stop offset="1" stop-color="#F5C178"/>
</linearGradient>
<linearGradient id="paint23_linear_461_5446" x1="65.7" y1="0.976562" x2="65.7" y2="35.9906" gradientUnits="userSpaceOnUse">
<stop offset="0.35" stop-color="#CB5534"/>
<stop offset="1" stop-color="#F5C178"/>
</linearGradient>
<linearGradient id="paint24_linear_461_5446" x1="49.1527" y1="0.980469" x2="49.1527" y2="35.9847" gradientUnits="userSpaceOnUse">
<stop offset="0.35" stop-color="#CB5534"/>
<stop offset="1" stop-color="#F5C178"/>
</linearGradient>
<linearGradient id="paint25_linear_461_5446" x1="96.5352" y1="61.3594" x2="96.5352" y2="69.5917" gradientUnits="userSpaceOnUse">
<stop offset="0.35" stop-color="#CB5534"/>
<stop offset="1" stop-color="#F5C178"/>
</linearGradient>
<linearGradient id="paint26_linear_461_5446" x1="49.1684" y1="78.5" x2="49.1684" y2="113.462" gradientUnits="userSpaceOnUse">
<stop offset="0.35" stop-color="#CB5534"/>
<stop offset="1" stop-color="#F5C178"/>
</linearGradient>
<linearGradient id="paint27_linear_461_5446" x1="65.6011" y1="78.3945" x2="65.6011" y2="113.422" gradientUnits="userSpaceOnUse">
<stop offset="0.35" stop-color="#CB5534"/>
<stop offset="1" stop-color="#F5C178"/>
</linearGradient>
<linearGradient id="paint28_linear_461_5446" x1="99.0642" y1="55.5586" x2="99.0642" y2="58.8364" gradientUnits="userSpaceOnUse">
<stop offset="0.35" stop-color="#CB5534"/>
<stop offset="1" stop-color="#F5C178"/>
</linearGradient>
<linearGradient id="paint29_linear_461_5446" x1="15.7621" y1="55.582" x2="15.7621" y2="58.8408" gradientUnits="userSpaceOnUse">
<stop offset="0.35" stop-color="#CB5534"/>
<stop offset="1" stop-color="#F5C178"/>
</linearGradient>
<linearGradient id="paint30_linear_461_5446" x1="57.4407" y1="83.707" x2="57.4407" y2="114.581" gradientUnits="userSpaceOnUse">
<stop offset="0.35" stop-color="#CB5534"/>
<stop offset="1" stop-color="#F5C178"/>
</linearGradient>
<linearGradient id="paint31_linear_461_5446" x1="57.4" y1="0" x2="57.4" y2="30.6843" gradientUnits="userSpaceOnUse">
<stop offset="0.35" stop-color="#CB5534"/>
<stop offset="1" stop-color="#F5C178"/>
</linearGradient>
<clipPath id="clip0_461_5446">
<rect width="114.86" height="114.584" fill="white"/>
</clipPath>
</defs>
</svg>
