<svg xmlns="http://www.w3.org/2000/svg" width="106" height="43" fill="#14776f" xmlns:v="https://vecta.io/nano"><path d="M10.977 18.418c-1.479-.371-1.77-1.682-1.252-2.876.105-.273.278-.509.499-.685 1.28-.949 1.666-2.354 1.762-3.899a2.68 2.68 0 0 1 .163-.928c.105-.334.398-.558.727-.557.373 0 .583.24.707.568.31.824.146 1.632-.127 2.429-.097.295-.253.572-.322.873s-.104.652.253.813c.331.15.536-.109.655-.358.72-1.485 1.004-2.971.21-4.558-.427-.858-1.096-1.391-1.893-1.797-.494-.247-1.002-.47-1.387-.902-.331-.371-.498-.769-.243-1.264h.127c.432.258.907.323 1.37.407 1.755.34 3.088 1.257 3.915 2.995.347.743.57 1.201.694 2.003a5.63 5.63 0 0 1 .01 1.3 12.11 12.11 0 0 1-.173 1.276c-.458 2.189-1.47 3.899-3.515 4.735a6.09 6.09 0 0 1-1.295.427 2.23 2.23 0 0 1-.884.002zM5.9 18.417c1.481-.371 1.771-1.682 1.252-2.876a1.63 1.63 0 0 0-.498-.685c-1.28-.949-1.667-2.355-1.762-3.9-.001-.318-.056-.632-.163-.929-.105-.334-.399-.559-.728-.557s-.612.238-.702.574c-.309.825-.144 1.634.121 2.429.097.295.253.572.323.873s.104.652-.253.813-.538-.109-.657-.358c-.72-1.486-1.006-2.971-.21-4.559.439-.856 1.106-1.389 1.908-1.796.494-.247 1.002-.47 1.387-.903.33-.366.503-.769.238-1.268h-.127c-.425.258-.905.323-1.37.407C2.9 6.018 1.565 6.935.738 8.674.391 9.417.173 9.885.044 10.68a5.75 5.75 0 0 0-.012 1.3 12.61 12.61 0 0 0 .173 1.274c.465 2.191 1.476 3.907 3.517 4.737a6.05 6.05 0 0 0 1.295.427c.292.059.591.059.883 0zm2.716-6.249c.332 0 .803.077.868.669.05.443-.49.919-1.015.929-.492.016-1.057-.443-1.078-.877s.394-.721 1.225-.721z"/><path d="M11.084 10.326a.71.71 0 0 1-.214.539c-.144.141-.342.213-.543.199a.75.75 0 0 1-.592-.188c-.161-.146-.251-.354-.248-.571-.026-.433.302-.805.732-.832h.046c.46-.024.793.243.818.854zm-3.695 0a.71.71 0 0 1-.214.539c-.144.141-.342.213-.543.199a.75.75 0 0 1-.592-.188c-.161-.146-.251-.354-.248-.571-.026-.433.302-.805.732-.832h.046c.46-.024.794.243.817.854zM29.775 18l-.856-2.81h-4.303L23.76 18h-2.697L25.23 6.148h3.06L32.472 18h-2.697zm-1.453-4.909l-1.34-4.319-.21-.791-1.526 5.111h3.076zM42.104 18h-2.462v-5.272c0-.651-.116-1.138-.347-1.461s-.6-.493-1.106-.493c-.689 0-1.187.232-1.494.694s-.46 1.219-.46 2.285V18h-2.462V8.973h1.881l.331 1.155h.137a2.58 2.58 0 0 1 1.13-.985 3.85 3.85 0 0 1 1.647-.339c1.05 0 1.846.285 2.39.856.544.565.815 1.383.815 2.454V18zm2.43-11.36c0-.802.447-1.203 1.34-1.203s1.34.401 1.34 1.203c0 .382-.113.681-.339.896-.221.21-.554.315-1.001.315-.893 0-1.34-.404-1.34-1.211zM47.102 18H44.64V8.973h2.462V18zm10.674 0h-2.462v-5.272c0-.651-.11-1.138-.331-1.461-.215-.328-.557-.493-1.025-.493-.63 0-1.087.232-1.373.694s-.428 1.225-.428 2.285V18h-2.463V8.973h1.881l.331 1.155h.137a2.48 2.48 0 0 1 1.05-.969c.457-.237.982-.355 1.574-.355 1.351 0 2.266.441 2.745 1.324h.218a2.44 2.44 0 0 1 1.066-.977c.474-.231 1.007-.347 1.599-.347 1.023 0 1.795.264 2.317.791.527.522.791 1.362.791 2.519V18h-2.471v-5.272c0-.651-.11-1.138-.331-1.461-.215-.328-.557-.493-1.025-.493-.603 0-1.055.215-1.356.646-.296.431-.444 1.114-.444 2.051V18zm13.895 0l-.476-1.227h-.065c-.414.522-.842.885-1.284 1.09-.436.199-1.006.299-1.712.299-.867 0-1.55-.248-2.051-.743-.495-.495-.743-1.2-.743-2.115 0-.958.334-1.663 1.001-2.115.673-.458 1.685-.711 3.036-.759l1.566-.049v-.396c0-.915-.468-1.373-1.405-1.373-.721 0-1.569.218-2.543.654l-.815-1.663c1.039-.544 2.191-.815 3.456-.815 1.211 0 2.14.264 2.785.791s.969 1.329.969 2.406V18h-1.72zm-.727-4.182l-.953.032c-.716.022-1.249.151-1.599.388s-.525.598-.525 1.082c0 .694.398 1.042 1.195 1.042.571 0 1.025-.164 1.365-.493s.517-.764.517-1.308v-.743zM78.396 18h-2.462V5.437h2.462V18zm5.054 0h-2.463V5.437h2.463V18zm2.244-1.155a1.7 1.7 0 0 1 .105-.638c.075-.178.178-.32.307-.428s.28-.186.452-.234a2.05 2.05 0 0 1 .557-.073 1.9 1.9 0 0 1 .533.073c.172.048.323.126.452.234s.231.25.307.428c.075.172.113.385.113.638 0 .242-.038.449-.113.622s-.178.315-.307.428a1.15 1.15 0 0 1-.452.242 1.72 1.72 0 0 1-.533.081 1.86 1.86 0 0 1-.557-.081 1.15 1.15 0 0 1-.452-.242c-.129-.113-.231-.256-.307-.428a1.65 1.65 0 0 1-.105-.622zM90.652 6.64c0-.802.447-1.203 1.34-1.203s1.34.401 1.34 1.203c0 .382-.113.681-.339.896s-.554.315-1.001.315c-.894 0-1.34-.404-1.34-1.211zM93.219 18h-2.462V8.973h2.462V18zm10.924 0h-2.462v-5.272c0-.651-.116-1.138-.347-1.461s-.601-.493-1.106-.493c-.689 0-1.187.232-1.494.694s-.46 1.219-.46 2.285V18h-2.463V8.973h1.881l.331 1.155h.137a2.58 2.58 0 0 1 1.13-.985c.485-.226 1.033-.339 1.647-.339 1.05 0 1.846.285 2.39.856.543.565.815 1.383.815 2.454V18zM7.666 30.1c.179-.116.321-.316.427-.601.105-.295.158-.616.158-.964 0-.506-.105-.98-.316-1.422a4.12 4.12 0 0 0-.822-1.217H5.138v-1.011h9.181v1.011h-1.422v8.944h-1.233v-8.944H8.393a2.75 2.75 0 0 1 .379.442 3 3 0 0 1 .363.632 3.62 3.62 0 0 1 .269.806 3.97 3.97 0 0 1 .111.964c0 .485-.063.911-.19 1.28-.116.369-.279.679-.49.932-.2.242-.432.427-.695.553a1.72 1.72 0 0 1-.774.19c-.19 0-.369-.032-.537-.095a1.54 1.54 0 0 1-.458-.269 1.39 1.39 0 0 1-.332-.411 1.25 1.25 0 0 1-.111-.537c0-.285.09-.506.269-.664.19-.169.4-.253.632-.253l.838.632zm7.763-4.203h-1.422v-1.011h4.077v1.011h-1.422v8.944h-1.233v-8.944zm10.161 0v8.944h-1.233v-2.797c-.179.158-.437.306-.774.443s-.79.205-1.359.205a3.88 3.88 0 0 1-1.343-.237c-.432-.158-.816-.395-1.154-.711-.337-.327-.611-.727-.822-1.201-.211-.485-.321-1.043-.332-1.675l.458-.016c.79-.021 1.338-.148 1.643-.379.316-.242.474-.601.474-1.075 0-.295-.063-.564-.19-.806a2.87 2.87 0 0 0-.49-.695h-2.686v-1.011h9.229v1.011H25.59zm-1.233 0h-2.655c.179.179.342.411.49.695.148.274.221.59.221.948 0 .685-.226 1.227-.68 1.628-.453.39-1.096.611-1.928.664.105.537.369.969.79 1.296s.98.49 1.675.49a3.06 3.06 0 0 0 1.217-.237c.379-.158.669-.363.869-.616v-4.867zm10.217 6.4c-.053.063-.148.126-.285.19a1.16 1.16 0 0 1-.49.095 1.77 1.77 0 0 1-1.138-.427 1.69 1.69 0 0 1-.364-.49 1.39 1.39 0 0 1-.142-.632c0-.274.095-.49.284-.648.19-.169.437-.253.743-.253h.174v-3.303c0-.348-.063-.616-.19-.806s-.327-.284-.6-.284c-.285 0-.516.079-.695.237-.169.148-.253.395-.253.743a1.38 1.38 0 0 0 .205.743 1.69 1.69 0 0 0 .585.537l-.458.885a2.4 2.4 0 0 1-.569-.284 2.47 2.47 0 0 1-.506-.49 2.67 2.67 0 0 1-.363-.632 2.34 2.34 0 0 1-.127-.774 2.15 2.15 0 0 1 .142-.79c.105-.242.248-.453.427-.632.19-.19.411-.332.664-.427a2.32 2.32 0 0 1 .869-.158c.716 0 1.243.2 1.58.601.337.39.506.917.506 1.58v3.255h2.813v-4.235h-1.675v-1.011h4.33v1.011h-1.422v8.944h-1.233V31.16h-2.813v1.138zm4.429-9.687c0-.211.084-.4.253-.569.158-.179.363-.269.616-.269.263 0 .469.09.616.269a.81.81 0 0 1 .237.569c0 .242-.079.448-.237.616-.158.158-.364.237-.616.237s-.458-.079-.616-.237a.84.84 0 0 1-.253-.616zm-.537 2.75h-.759l-1.343-1.043a5.3 5.3 0 0 0-.569-.379 2.55 2.55 0 0 0-.474-.237 1.39 1.39 0 0 0-.442-.111c-.158-.021-.327-.032-.506-.032a2.42 2.42 0 0 0-.521.063c-.2.042-.369.09-.506.142l-.332-.98c.158-.084.358-.153.601-.205a2.75 2.75 0 0 1 .727-.095c.485 0 .911.1 1.28.3s.737.495 1.106.885l.711.774h.063l-.458-1.264c-.232-.632-.548-1.069-.948-1.312-.411-.253-.853-.379-1.327-.379l-.395.016-.379.047-.126-1.075a5.34 5.34 0 0 1 .458-.063l.506-.032c.79 0 1.422.2 1.896.601.464.39.801.969 1.011 1.738l.727 2.639zm6.458 8.928l-1.075.711-3.05-4.472-.348-.553c-.053-.137-.079-.263-.079-.379 0-.221.084-.39.253-.506s.363-.174.585-.174l.332.427c.126.169.258.284.395.348s.311.095.521.095a1.35 1.35 0 0 0 1.043-.474c.284-.316.427-.758.427-1.327 0-.474-.074-.885-.221-1.233s-.311-.632-.49-.853H39.74v-1.011h10.856v1.011h-1.422v8.944h-1.233v-4.093c-.421.211-1.011.316-1.77.316-.369 0-.737-.063-1.106-.19a3.92 3.92 0 0 1-.964-.474c-.411.284-.906.427-1.485.427h-.126a.63.63 0 0 1-.126-.016l2.56 3.477zm1.09-4.33c.443 0 .822-.053 1.138-.158.327-.105.59-.237.79-.395v-3.508h-3.508c.169.19.337.479.506.869a3.12 3.12 0 0 1 .253 1.28c0 .643-.148 1.196-.443 1.659a2.94 2.94 0 0 0 .585.19c.2.042.427.063.679.063zm11.663-2.544c.569 0 1.043.1 1.422.3.39.2.69.421.901.664v-2.481h-6.194v-1.011h8.849v1.011h-1.422v8.944H60V32.36c-.19.19-.463.379-.822.569-.348.19-.822.284-1.422.284-.432 0-.837-.063-1.217-.19a3.22 3.22 0 0 1-1.011-.585c-.285-.263-.511-.579-.68-.948a3.2 3.2 0 0 1-.253-1.312c0-.453.074-.848.221-1.185.158-.348.374-.637.648-.869a2.92 2.92 0 0 1 .98-.521c.379-.127.79-.19 1.233-.19zM60 29.642c-.179-.295-.453-.564-.822-.806a2.25 2.25 0 0 0-1.264-.363c-.601 0-1.09.147-1.47.442-.369.284-.553.722-.553 1.312 0 .706.19 1.201.569 1.485s.89.427 1.533.427a2.34 2.34 0 0 0 .774-.126c.242-.095.453-.216.632-.363a1.71 1.71 0 0 0 .443-.553c.105-.211.158-.437.158-.68v-.774zm3.773-3.745H62.35v-1.011h4.077v1.011h-1.422v8.944h-1.233v-8.944zm7.585 3.461c-.179-.19-.406-.332-.68-.427a2.16 2.16 0 0 0-.727-.142c-.516 0-.943.142-1.28.427-.327.284-.49.737-.49 1.359 0 .432.069.822.205 1.169.147.337.342.648.585.932a4.92 4.92 0 0 0 .838.774c.326.232.669.442 1.027.632l-.758.901c-.432-.232-.843-.495-1.233-.79a6.05 6.05 0 0 1-.995-1.011c-.284-.368-.511-.774-.68-1.217a4.05 4.05 0 0 1-.253-1.454c0-.485.079-.901.237-1.248s.369-.632.632-.853a2.46 2.46 0 0 1 .901-.506c.348-.116.706-.174 1.075-.174a2.68 2.68 0 0 1 1.122.237 2.71 2.71 0 0 1 .932.632c.19-.263.442-.469.758-.616.327-.147.674-.221 1.043-.221a3 3 0 0 1 .522.047c.19.021.332.058.427.111v-2.023h-8.439v-1.011H77.22v1.011h-1.422v8.944h-1.233v-5.91c-.084-.042-.19-.074-.316-.095a1.72 1.72 0 0 0-.442-.047c-.537 0-.927.232-1.169.695-.232.453-.364 1.127-.395 2.023h-1.217c0-.506.032-.932.095-1.28.074-.358.153-.648.237-.869zm6.974-3.461H76.91v-1.011h4.077v1.011h-1.422v8.944h-1.233v-8.944zm14.401-1.011v1.011h-1.264v2.623c0 .432-.042.811-.126 1.138a3.04 3.04 0 0 1-.379.885c-.169.253-.379.479-.632.679a5.79 5.79 0 0 1-.885.537l-.743-1.043c1.022-.411 1.533-1.148 1.533-2.212v-2.607h-3.54v3.097c0 .748.079 1.385.237 1.912a3.42 3.42 0 0 0 .743 1.327c.348.369.78.685 1.296.948a12.27 12.27 0 0 0 1.88.695l-.521 1.106c-.822-.221-1.538-.495-2.149-.822-.611-.337-1.117-.743-1.517-1.217s-.701-1.027-.901-1.659-.3-1.359-.3-2.181v-3.208h-1.264v-1.011h5.863l-.901-1.359a5.63 5.63 0 0 0-.442-.585c-.148-.179-.311-.327-.49-.442a1.59 1.59 0 0 0-.569-.269 2.53 2.53 0 0 0-.727-.095 2.39 2.39 0 0 0-.616.079c-.19.042-.358.095-.506.158l-.427-1.122a2.82 2.82 0 0 1 .679-.237 3.44 3.44 0 0 1 .869-.111c.769 0 1.406.195 1.912.585.506.379.938.911 1.296 1.596l.948 1.802h1.643zm8.078 1.011h-1.422v8.944h-1.233v-3.808c-.19.169-.442.316-.758.442s-.695.19-1.138.19a3.38 3.38 0 0 1-1.043-.158 2.44 2.44 0 0 1-.869-.49c-.253-.221-.453-.495-.6-.822s-.221-.711-.221-1.154v-3.145H92.42v-1.011h8.391v1.011zm-6.052 3.018c0 .601.137 1.032.411 1.296s.664.395 1.169.395a2.29 2.29 0 0 0 1.09-.269c.337-.19.579-.421.727-.695v-3.745h-3.397v3.018z"/></svg>